Coordinates
version=1
nRows=65
nColumns=12
inDegrees=yes

Units are S.I. units (second, meters, Newtons, ...)
Angles are in degrees

endheader
time	SC_y	SC_z	SC_x	AC_y	AC_z	AC_x	GH_y	GH_z	GH_yy	EL_x	PS_y
       0.0              -39.11          37.61          53.14          39.49         -18.85         -3.725          150.5          5.834         -70.76          116.8          46.46
   0.02416               -39.1           37.6          53.14          39.49         -18.85         -3.727          150.4          5.834         -70.75          116.8          46.46
   0.04833               -39.1           37.6          53.14          39.49         -18.85         -3.728          150.4          5.834         -70.73          116.8          46.45
   0.07249               -39.1           37.6          53.13          39.48         -18.84         -3.729          150.4          5.834         -70.71          116.8          46.45
   0.09665               -39.1           37.6          53.13          39.48         -18.84          -3.73          150.3          5.834         -70.69          116.8          46.44
    0.1208               -39.1           37.6          53.13          39.48         -18.84         -3.732          150.3          5.834         -70.66          116.8          46.43
     0.145               -39.1          37.59          53.12          39.48         -18.83         -3.733          150.2          5.834         -70.64          116.7          46.43
    0.1691               -39.1          37.59          53.12          39.48         -18.83         -3.735          150.2          5.834         -70.61          116.7          46.42
    0.1933               -39.1          37.59          53.11          39.48         -18.83         -3.737          150.1          5.834         -70.58          116.7          46.41
    0.2175              -39.09          37.58          53.11          39.48         -18.82         -3.739          150.1          5.834         -70.55          116.7           46.4
    0.2416              -39.09          37.58           53.1          39.48         -18.82         -3.741          150.0          5.834         -70.52          116.7          46.39
    0.2658              -39.09          37.58           53.1          39.48         -18.81         -3.743          149.9          5.834         -70.49          116.7          46.38
      0.29              -39.09          37.57          53.09          39.47         -18.81         -3.746          149.9          5.834         -70.45          116.6          46.37
    0.3141              -39.09          37.57          53.09          39.47          -18.8         -3.748          149.8          5.834         -70.41          116.6          46.36
    0.3383              -39.08          37.56          53.08          39.47         -18.79         -3.751          149.7          5.834         -70.36          116.6          46.35
    0.3625              -39.08          37.56          53.07          39.47         -18.79         -3.754          149.6          5.834         -70.32          116.6          46.33
    0.3866              -39.08          37.55          53.07          39.47         -18.78         -3.757          149.5          5.834         -70.26          116.5          46.32
    0.4108              -39.08          37.55          53.06          39.46         -18.77         -3.761          149.4          5.834         -70.21          116.5           46.3
    0.4349              -39.07          37.54          53.05          39.46         -18.76         -3.765          149.3          5.834         -70.15          116.5          46.28
    0.4591              -39.07          37.53          53.04          39.46         -18.75         -3.769          149.1          5.833         -70.08          116.4          46.26
    0.4833              -39.07          37.53          53.03          39.45         -18.74         -3.774          149.0          5.833         -70.01          116.4          46.24
    0.5074              -39.06          37.52          53.02          39.45         -18.73         -3.779          148.8          5.833         -69.92          116.3          46.22
    0.5316              -39.06          37.51           53.0          39.45         -18.72         -3.785          148.7          5.833         -69.83          116.3          46.19
    0.5558              -39.05           37.5          52.99          39.44          -18.7         -3.791          148.5          5.833         -69.74          116.2          46.16
    0.5799              -39.05          37.49          52.97          39.44         -18.69         -3.799          148.2          5.833         -69.62          116.2          46.13
    0.6041              -39.04          37.47          52.95          39.43         -18.67         -3.807          148.0          5.833          -69.5          116.1          46.09
    0.6282              -39.03          37.46          52.93          39.43         -18.65         -3.815          147.7          5.833         -69.36          116.0          46.05
    0.6524              -39.02          37.44          52.91          39.42         -18.63         -3.825          147.4          5.833         -69.21          115.9          46.01
    0.6766              -39.01          37.42          52.88          39.41          -18.6         -3.837          147.1          5.833         -69.03          115.8          45.96
    0.7007               -39.0           37.4          52.85           39.4         -18.57          -3.85          146.7          5.833         -68.83          115.7           45.9
    0.7249              -38.99          37.38          52.82          39.39         -18.54         -3.864          146.2          5.832          -68.6          115.6          45.83
    0.7491              -38.98          37.35          52.78          39.38          -18.5         -3.881          145.7          5.832         -68.34          115.4          45.75
    0.7732              -38.96          37.32          52.73          39.37         -18.46           -3.9          145.1          5.832         -68.04          115.3          45.67
    0.7974              -38.94          37.28          52.68          39.36         -18.41         -3.923          144.4          5.832         -67.69          115.1          45.56
    0.8216              -38.92          37.24          52.62          39.34         -18.35         -3.949          143.6          5.832         -67.28          114.8          45.44
    0.8457               -38.9          37.19          52.55          39.32         -18.28         -3.981          142.7          5.831         -66.79          114.6           45.3
    0.8699              -38.87          37.13          52.46          39.29          -18.2         -4.018          141.5          5.831         -66.22          114.2          45.13
     0.894              -38.83          37.06          52.36          39.26          -18.1         -4.062          140.2           5.83         -65.53          113.9          44.93
    0.9182              -38.79          36.97          52.24          39.23         -17.98         -4.115          138.5           5.83          -64.7          113.4          44.69
    0.9424              -38.73          36.86          52.09          39.18         -17.83         -4.181          136.5          5.829         -63.68          112.8          44.39
    0.9665              -38.66          36.73           51.9          39.13         -17.65         -4.262          134.1          5.828         -62.42          112.1          44.02
    0.9907              -38.58          36.56          51.66          39.06         -17.43         -4.363          131.0          5.827         -60.85          111.2          43.56
     1.015              -38.48          36.36          51.37          38.98         -17.15          -4.49          127.1          5.826         -58.88          110.1          42.98
     1.039              -38.34          36.09           51.0          38.87         -16.79         -4.651          122.2          5.824         -56.37          108.7          42.25
     1.063              -38.18          35.76          50.52          38.73         -16.32         -4.858          115.8          5.822         -53.15          106.8           41.3
     1.087              -37.96          35.32           49.9          38.56         -15.73         -5.123          107.7          5.819         -49.03          104.5           40.1
     1.112              -37.68          34.77          49.12          38.33         -14.98         -5.462          97.37          5.815         -43.76          101.5          38.55
     1.136              -37.33          34.07          48.13          38.05         -14.02         -5.887          84.34           5.81         -37.13          97.76          36.61
      1.16               -36.9          33.23          46.93           37.7         -12.87         -6.407          68.47          5.805         -29.06          93.18          34.25
     1.184              -36.41          32.24          45.54           37.3         -11.52         -7.008          50.06          5.798          -19.7          87.88          31.51
     1.208              -35.87          31.18          44.03          36.87         -10.07          -7.66          30.14          5.791         -9.572          82.14          28.54
     1.232              -35.34          30.12          42.52          36.43         -8.614         -8.311          10.21          5.784         0.5601          76.39          25.57
     1.256              -34.84          29.13          41.12          36.03         -7.271         -8.913         -8.195          5.777          9.917          71.09          22.83
     1.281              -34.42          28.29          39.92          35.69         -6.112         -9.432         -24.07          5.772          17.99          66.52          20.46
     1.305              -34.07          27.59          38.94           35.4         -5.161         -9.857          -37.1          5.767          24.61          62.76          18.52
     1.329              -33.79          27.04          38.15          35.18         -4.405          -10.2         -47.46          5.763          29.88          59.78          16.98
     1.353              -33.57           26.6          37.54           35.0         -3.813         -10.46         -55.57           5.76          34.01          57.44          15.77
     1.377               -33.4          26.27          37.06          34.86         -3.352         -10.67         -61.89          5.758          37.22          55.62          14.83
     1.401              -33.27           26.0          36.68          34.76         -2.991         -10.83         -66.83          5.756          39.73          54.19          14.09
     1.426              -33.16          25.79          36.39          34.67         -2.708         -10.96         -70.72          5.755          41.71          53.07          13.51
      1.45              -33.08          25.63          36.16           34.6         -2.483         -11.06          -73.8          5.754          43.28          52.18          13.05
     1.474              -33.01           25.5          35.97          34.55         -2.302         -11.14         -76.28          5.753          44.53          51.47          12.69
     1.498              -32.96          25.39          35.82          34.51         -2.156          -11.2         -78.28          5.752          45.55          50.89          12.39
     1.522              -32.92           25.3          35.69          34.47         -2.036         -11.26         -79.92          5.752          46.39          50.42          12.14
     1.546              -32.88          25.23          35.59          34.44         -1.937          -11.3         -81.28          5.751          47.08          50.03          11.94
